<mxfile host="app.diagrams.net" agent="Mozilla/5.0 (Windows NT 10.0; Win64; x64; rv:140.0) Gecko/20100101 Firefox/140.0" version="27.1.6">
  <diagram name="Página-1" id="vyKvVYCuz1J2oj9MiSdE">
    <mxGraphModel dx="1426" dy="1928" grid="1" gridSize="10" guides="1" tooltips="1" connect="1" arrows="1" fold="1" page="1" pageScale="1" pageWidth="827" pageHeight="1169" math="0" shadow="0">
      <root>
        <mxCell id="0" />
        <mxCell id="1" parent="0" />
        <mxCell id="e7VwcULazJnpzLRZF0wZ-1" value="Visitante" style="shape=umlActor;verticalLabelPosition=bottom;verticalAlign=top;html=1;outlineConnect=0;" parent="1" vertex="1">
          <mxGeometry x="80" y="-932" width="30" height="60" as="geometry" />
        </mxCell>
        <mxCell id="e7VwcULazJnpzLRZF0wZ-2" value="&lt;hr&gt;&lt;hr&gt;" style="whiteSpace=wrap;html=1;aspect=fixed;" parent="1" vertex="1">
          <mxGeometry x="160" y="-962" width="486" height="486" as="geometry" />
        </mxCell>
        <mxCell id="e7VwcULazJnpzLRZF0wZ-3" value="Instituição&lt;br&gt;ou&lt;br&gt;&lt;div&gt;ADM&lt;/div&gt;" style="shape=umlActor;verticalLabelPosition=bottom;verticalAlign=top;html=1;outlineConnect=0;" parent="1" vertex="1">
          <mxGeometry x="80" y="-692" width="30" height="60" as="geometry" />
        </mxCell>
        <mxCell id="e7VwcULazJnpzLRZF0wZ-4" value="Login" style="ellipse;whiteSpace=wrap;html=1;" parent="1" vertex="1">
          <mxGeometry x="200" y="-700" width="110" height="50" as="geometry" />
        </mxCell>
        <UserObject label="&lt;font style=&quot;font-size: 13px;&quot;&gt;Login Site de doações Bem-Feito&lt;/font&gt;" placeholders="1" name="Variable" id="e7VwcULazJnpzLRZF0wZ-6">
          <mxCell style="text;html=1;strokeColor=none;fillColor=none;align=center;verticalAlign=middle;whiteSpace=wrap;overflow=hidden;" parent="1" vertex="1">
            <mxGeometry x="270" y="-970" width="240" height="44" as="geometry" />
          </mxCell>
        </UserObject>
        <mxCell id="e7VwcULazJnpzLRZF0wZ-9" style="edgeStyle=orthogonalEdgeStyle;rounded=0;orthogonalLoop=1;jettySize=auto;html=1;exitX=0;exitY=0.3333333333333333;exitDx=0;exitDy=0;exitPerimeter=0;entryX=0;entryY=0.3333333333333333;entryDx=0;entryDy=0;entryPerimeter=0;" parent="1" source="e7VwcULazJnpzLRZF0wZ-3" target="e7VwcULazJnpzLRZF0wZ-1" edge="1">
          <mxGeometry relative="1" as="geometry" />
        </mxCell>
        <mxCell id="e7VwcULazJnpzLRZF0wZ-15" value="" style="edgeStyle=none;orthogonalLoop=1;jettySize=auto;html=1;rounded=0;endArrow=none;startFill=0;" parent="1" edge="1">
          <mxGeometry width="100" relative="1" as="geometry">
            <mxPoint x="110" y="-912" as="sourcePoint" />
            <mxPoint x="200" y="-912" as="targetPoint" />
            <Array as="points">
              <mxPoint x="160" y="-912" />
            </Array>
          </mxGeometry>
        </mxCell>
        <mxCell id="e7VwcULazJnpzLRZF0wZ-22" value="&lt;font&gt;Apoiar&amp;nbsp;&lt;/font&gt;&lt;div&gt;&lt;font&gt;Coloboradores&lt;/font&gt;&lt;/div&gt;" style="ellipse;whiteSpace=wrap;html=1;" parent="1" vertex="1">
          <mxGeometry x="200" y="-880" width="110" height="50" as="geometry" />
        </mxCell>
        <mxCell id="VftM1EwZa3hSBhcoJhMB-2" value="Alterar dados&amp;nbsp;&lt;div&gt;da&lt;/div&gt;&lt;div&gt;Instituição&amp;nbsp;&lt;/div&gt;" style="ellipse;whiteSpace=wrap;html=1;" parent="1" vertex="1">
          <mxGeometry x="380" y="-670" width="110" height="50" as="geometry" />
        </mxCell>
        <mxCell id="VftM1EwZa3hSBhcoJhMB-3" value="" style="edgeStyle=none;orthogonalLoop=1;jettySize=auto;html=1;rounded=0;endArrow=none;startFill=0;" parent="1" edge="1">
          <mxGeometry width="100" relative="1" as="geometry">
            <mxPoint x="110" y="-672" as="sourcePoint" />
            <mxPoint x="200" y="-672" as="targetPoint" />
            <Array as="points">
              <mxPoint x="160" y="-672" />
            </Array>
          </mxGeometry>
        </mxCell>
        <mxCell id="1QNMURvAYeULJM6w-lUa-2" value="" style="orthogonalLoop=1;jettySize=auto;html=1;rounded=0;endArrow=open;startFill=0;dashed=1;endFill=0;" parent="1" edge="1">
          <mxGeometry width="100" relative="1" as="geometry">
            <mxPoint x="310" y="-678.5" as="sourcePoint" />
            <mxPoint x="380" y="-700" as="targetPoint" />
          </mxGeometry>
        </mxCell>
        <mxCell id="1QNMURvAYeULJM6w-lUa-4" value="extend" style="text;html=1;align=center;verticalAlign=middle;resizable=0;points=[];autosize=1;strokeColor=none;fillColor=none;rotation=5;fontSize=11;" parent="1" vertex="1">
          <mxGeometry x="311" y="-679" width="60" height="30" as="geometry" />
        </mxCell>
        <mxCell id="1QNMURvAYeULJM6w-lUa-6" value="Alterar lista de&lt;div&gt;desejos&lt;/div&gt;" style="ellipse;whiteSpace=wrap;html=1;" parent="1" vertex="1">
          <mxGeometry x="380" y="-731" width="110" height="50" as="geometry" />
        </mxCell>
        <mxCell id="1QNMURvAYeULJM6w-lUa-8" value="Suporte/Feedback" style="ellipse;whiteSpace=wrap;html=1;" parent="1" vertex="1">
          <mxGeometry x="200" y="-820" width="110" height="50" as="geometry" />
        </mxCell>
        <mxCell id="1QNMURvAYeULJM6w-lUa-9" value="" style="orthogonalLoop=1;jettySize=auto;html=1;rounded=0;endArrow=none;startFill=0;entryX=0.064;entryY=0.24;entryDx=0;entryDy=0;entryPerimeter=0;" parent="1" target="1QNMURvAYeULJM6w-lUa-8" edge="1">
          <mxGeometry width="100" relative="1" as="geometry">
            <mxPoint x="120" y="-912" as="sourcePoint" />
            <mxPoint x="200" y="-862" as="targetPoint" />
          </mxGeometry>
        </mxCell>
        <mxCell id="1QNMURvAYeULJM6w-lUa-12" value="Contatar&amp;nbsp;&lt;div&gt;a&lt;/div&gt;&lt;div&gt;Instituição&lt;/div&gt;" style="ellipse;whiteSpace=wrap;html=1;" parent="1" vertex="1">
          <mxGeometry x="200" y="-760" width="110" height="50" as="geometry" />
        </mxCell>
        <mxCell id="1QNMURvAYeULJM6w-lUa-13" value="" style="orthogonalLoop=1;jettySize=auto;html=1;rounded=0;endArrow=none;startFill=0;entryX=0;entryY=0;entryDx=0;entryDy=0;" parent="1" target="1QNMURvAYeULJM6w-lUa-12" edge="1">
          <mxGeometry width="100" relative="1" as="geometry">
            <mxPoint x="120" y="-912" as="sourcePoint" />
            <mxPoint x="220" y="-802" as="targetPoint" />
          </mxGeometry>
        </mxCell>
        <mxCell id="1QNMURvAYeULJM6w-lUa-14" value="Doar" style="ellipse;whiteSpace=wrap;html=1;" parent="1" vertex="1">
          <mxGeometry x="200" y="-940" width="110" height="50" as="geometry" />
        </mxCell>
        <mxCell id="1QNMURvAYeULJM6w-lUa-15" value="" style="orthogonalLoop=1;jettySize=auto;html=1;rounded=0;endArrow=open;startFill=0;dashed=1;endFill=0;" parent="1" edge="1">
          <mxGeometry width="100" relative="1" as="geometry">
            <mxPoint x="300" y="-660" as="sourcePoint" />
            <mxPoint x="380" y="-650" as="targetPoint" />
          </mxGeometry>
        </mxCell>
        <mxCell id="1QNMURvAYeULJM6w-lUa-18" value="extend" style="text;html=1;align=center;verticalAlign=middle;resizable=0;points=[];autosize=1;strokeColor=none;fillColor=none;fontSize=11;rotation=343;" parent="1" vertex="1">
          <mxGeometry x="309" y="-713" width="60" height="30" as="geometry" />
        </mxCell>
        <mxCell id="Nxh9h5I1cULK8k-Ws4DC-10" value="" style="orthogonalLoop=1;jettySize=auto;html=1;rounded=0;endArrow=none;startFill=0;entryX=0.027;entryY=0.3;entryDx=0;entryDy=0;entryPerimeter=0;" edge="1" parent="1" target="e7VwcULazJnpzLRZF0wZ-22">
          <mxGeometry width="100" relative="1" as="geometry">
            <mxPoint x="120" y="-912" as="sourcePoint" />
            <mxPoint x="210" y="-872" as="targetPoint" />
          </mxGeometry>
        </mxCell>
      </root>
    </mxGraphModel>
  </diagram>
</mxfile>
